<svg width="413" height="254" viewBox="0 0 413 254" fill="none" xmlns="http://www.w3.org/2000/svg">
<path d="M206.424 208.41C207.067 194.452 183.733 182.037 154.305 180.68C124.878 179.323 100.5 189.538 99.8567 203.496C99.2131 217.454 122.547 229.87 151.975 231.226C181.402 232.583 205.78 222.368 206.424 208.41Z" fill="#E8EDF9"/>
<path d="M41.2598 238.085L51.8998 228.275H59.1298L79.1798 217.335L90.1798 198.335L78.7398 188.745L58.2498 187.115L28.9898 198.555L19.5098 216.675L32.5798 221.625L41.2598 238.085Z" fill="#E8EDF9"/>
<path d="M216.18 250.475L225.46 240.355C225.46 240.355 250.41 229.355 261.38 213.075C272.35 196.795 272.15 175.885 272.15 175.885L262.92 165.115L242.43 169.515L231.43 202.145L208.11 234.965L216.18 250.475Z" fill="#E8EDF9"/>
<path d="M265.61 176.225C275.31 175.635 284.03 175.395 287.8 176.225C291.57 177.055 314.82 176.585 333.5 170.165C349.07 164.815 368.87 160.585 371.2 160.705C373.53 160.825 389.83 162.465 401.15 160.855C408.22 159.855 412.33 156.275 412.37 152.815C412.44 147.535 393.04 144.825 385.66 143.265C378.07 141.655 364.76 143.265 364.76 143.265L333.28 137.635L293.22 134.975L271.06 154.235L265.61 176.215V176.225Z" fill="#E8EDF9"/>
<path d="M303.577 95.1751L281.854 90.1799C268.382 87.082 254.949 95.492 251.851 108.964L251.47 110.621C248.372 124.093 256.782 137.526 270.254 140.623L291.977 145.619C305.45 148.717 318.882 140.307 321.98 126.835L322.361 125.178C325.459 111.706 317.049 98.273 303.577 95.1751Z" fill="#D8E1FD"/>
<path d="M212.57 133.395C212.57 133.395 239.18 134.545 265.79 123.035" stroke="#1062FB" stroke-width="57.6" stroke-linecap="round" stroke-linejoin="round"/>
<path d="M292.23 111.605C285.92 97.0049 268.96 90.2849 254.36 96.6049C253.99 96.7649 253.61 96.9149 253.24 97.0749C265.56 96.6249 277.47 103.645 282.66 115.635C287.91 127.785 284.73 141.455 275.71 150.105C276.21 149.895 276.72 149.685 277.22 149.465C291.82 143.155 298.54 126.195 292.22 111.595L292.23 111.605Z" fill="#D8E1FD"/>
<path d="M303.97 93.7849L280.05 88.2849C272.34 86.5149 262.71 87.5149 256.87 91.9649C261.84 89.6749 269.5 89.8449 275.25 91.1649L299.17 96.6649C312.96 99.8349 321.56 113.585 318.39 127.375L318.27 127.895C316.87 133.975 313.42 139.035 308.82 142.535C315.77 139.325 321.22 133.055 323.07 125.015L323.19 124.495C326.36 110.705 317.75 96.9549 303.97 93.7849Z" fill="#BCCBFD"/>
<path d="M258.36 74.1149C268.97 49.9549 269.98 34.1649 272.35 8.40491C272.48 6.96491 272.94 3.99491 275.99 5.32491C287.63 10.3849 296.23 20.4249 295.83 33.6949C295.6 31.4549 302.27 15.2549 304.98 18.4949C314.92 30.3449 310.58 43.6249 304.31 56.3949C305.01 55.6749 306.95 55.4749 307.93 55.7749C310.39 56.5349 313.07 56.6349 310.83 60.1449C303.7 71.3549 295.61 79.7049 281.59 80.9949C274.13 76.5149 266.49 76.5049 258.36 74.1249V74.1149Z" fill="#FFAB4B"/>
<path d="M269.73 33.7749C267.93 46.9649 265.06 58.8749 258.36 74.1149C265.58 76.2249 272.41 76.4849 279.08 79.6449C284.41 77.7149 288.23 73.9449 291.54 68.7349C292.94 66.5349 292.2 65.3149 290.66 64.8349C290.05 64.6449 287.57 65.1349 287.13 65.5749C291.06 57.5749 294.36 47.8649 287.55 41.8449C285.57 40.0949 281.25 52.7049 281.4 54.1049C281.65 45.9249 276.83 37.0649 269.73 33.7649V33.7749Z" fill="#EA9642"/>
<path d="M145.53 93.7249C145.53 93.7249 172.17 78.9349 201.22 73.9949C230.27 69.0549 261.73 64.8849 287.27 80.0749C313.45 95.6449 310.76 134.895 310.76 134.895C310.76 134.895 311.21 163.185 283.29 172.755L188.38 196.695C188.38 196.695 166.75 200.275 149.44 191.505C132.13 182.735 119.17 158.395 117.92 149.355C116.17 136.735 114.14 108.775 145.54 93.7349L145.53 93.7249Z" fill="#1062FB"/>
<path d="M236.31 157.365C241.53 177.145 237.7 196.425 220.2 211.415" stroke="#1062FB" stroke-width="50" stroke-miterlimit="10" stroke-linecap="round"/>
<path d="M221.82 202.145H208.51C202.2 202.145 196.71 205.655 193.89 210.835C196.26 209.545 198.97 208.815 201.85 208.815H215.16C224.35 208.815 231.81 216.265 231.81 225.465V228.635C231.81 231.515 231.08 234.235 229.79 236.595C234.97 233.775 238.48 228.285 238.48 221.975V218.805C238.48 209.615 231.03 202.155 221.83 202.155L221.82 202.145Z" fill="#103EFF"/>
<path d="M217.68 205.965H204.38C195.184 205.965 187.73 213.419 187.73 222.615V225.785C187.73 234.98 195.184 242.435 204.38 242.435H217.68C226.876 242.435 234.33 234.98 234.33 225.785V222.615C234.33 213.419 226.876 205.965 217.68 205.965Z" fill="#103EFF"/>
<path d="M213.67 215.085H195.76C188.454 215.085 182.53 221.008 182.53 228.315V231.325C182.53 238.632 188.454 244.555 195.76 244.555H213.67C220.977 244.555 226.9 238.632 226.9 231.325V228.315C226.9 221.008 220.977 215.085 213.67 215.085Z" fill="#FFAB4B"/>
<path d="M212.68 245.915L214.13 235.555" stroke="#FFAB4B" stroke-width="13.32" stroke-miterlimit="10" stroke-linecap="round"/>
<path d="M198.77 246.945L200.14 236.585" stroke="#FFAB4B" stroke-width="13.32" stroke-miterlimit="10" stroke-linecap="round"/>
<path d="M184.48 245.445L188.89 235.255" stroke="#FFAB4B" stroke-width="13.32" stroke-miterlimit="10" stroke-linecap="round"/>
<path d="M174.79 232.615L185.74 229.815" stroke="#FFAB4B" stroke-width="13.32" stroke-miterlimit="10" stroke-linecap="round"/>
<path d="M196.11 235.455C197.53 232.985 201.18 232.445 203.36 234.205C204.12 234.775 204.6 235.655 204.71 236.595C203.74 236.425 203.07 236.205 202.39 236.135C200.25 235.805 198.3 235.875 196.1 235.455H196.11Z" fill="#EA9642"/>
<path d="M183.42 233.835C184.84 231.365 188.49 230.825 190.67 232.585C191.43 233.155 191.91 234.035 192.02 234.975C191.05 234.805 190.38 234.585 189.7 234.515C187.56 234.185 185.61 234.255 183.41 233.835H183.42Z" fill="#EA9642"/>
<path d="M211.41 237.125C212.74 234.085 218.11 234.595 218.32 238.085C215.9 238.215 213.71 238.275 211.41 237.125Z" fill="#EA9642"/>
<path d="M100.89 172.665C86.2501 175.065 57.6301 194.725 33.6201 208.475" stroke="#1062FB" stroke-width="46" stroke-miterlimit="10" stroke-linecap="round"/>
<path d="M24.6598 191.515H38.1598C48.0298 191.515 56.0398 199.525 56.0398 209.395V213.435C56.0398 222.115 48.9898 229.155 40.3198 229.155H24.6598C14.7898 229.155 6.77979 221.145 6.77979 211.275V209.395C6.77979 199.525 14.7898 191.515 24.6598 191.515Z" fill="#103EFF"/>
<path d="M19.2301 231.405H37.1401C44.4468 231.405 50.3701 225.482 50.3701 218.175V215.165C50.3701 207.858 44.4468 201.935 37.1401 201.935H19.2301C11.9234 201.935 6.00012 207.858 6.00012 215.165V218.175C6.00012 225.482 11.9234 231.405 19.2301 231.405Z" fill="#FFAB4B"/>
<path d="M7.43018 231.315L13.8602 222.675" stroke="#FFAB4B" stroke-width="13.32" stroke-miterlimit="10" stroke-linecap="round"/>
<path d="M21.96 234.485L24.41 222.075" stroke="#FFAB4B" stroke-width="13.32" stroke-miterlimit="10" stroke-linecap="round"/>
<path d="M37.19 234.065L36.96 222.675" stroke="#FFAB4B" stroke-width="13.32" stroke-miterlimit="10" stroke-linecap="round"/>
<path d="M54.95 222.775L44 219.985" stroke="#FFAB4B" stroke-width="13.32" stroke-miterlimit="10" stroke-linecap="round"/>
<path d="M28.1898 221.695C25.4198 221.385 24.5998 221.385 21.8698 221.505C21.1898 221.535 20.4998 221.595 19.5098 221.635C19.7498 220.725 20.3498 219.925 21.1798 219.455C23.5798 218.015 27.1198 219.055 28.1898 221.695Z" fill="#EA9642"/>
<path d="M41.2601 221.695C39.0301 221.815 37.1001 221.475 34.9401 221.505C34.2601 221.475 33.5701 221.595 32.5801 221.635C32.8201 220.725 33.4201 219.925 34.2501 219.455C36.6501 218.015 40.1901 219.055 41.2601 221.695Z" fill="#EA9642"/>
<path d="M16.9698 220.925C14.9598 220.775 13.4498 220.455 11.6298 220.025C11.0498 219.865 10.4098 219.775 9.50977 219.515C10.1498 217.815 12.0998 217.055 13.7898 217.445C15.4698 217.825 16.8898 219.115 16.9698 220.935V220.925Z" fill="#EA9642"/>
<path d="M367.17 157.075L343.25 151.575C329.46 148.405 316.93 134.995 320.1 121.215L320.22 120.695C323.39 106.905 335.89 98.3549 354.85 101.125L378.77 106.625C392.56 109.795 401.16 123.545 397.99 137.335L397.87 137.855C394.7 151.645 380.95 160.245 367.16 157.075H367.17Z" fill="#D8E1FD"/>
<path d="M285.02 145.555C285.02 145.555 307.71 145.965 334.32 134.455" stroke="#1062FB" stroke-width="57.6" stroke-linecap="round" stroke-linejoin="round"/>
<path d="M364.67 121.415C358.36 106.815 341.4 100.095 326.8 106.415C326.43 106.575 326.05 106.725 325.68 106.885C338 106.435 349.91 113.455 355.1 125.445C360.35 137.595 353.98 152.695 344.96 161.345C345.46 161.135 349.16 159.495 349.67 159.275C364.27 152.965 370.99 136.005 364.67 121.405V121.415Z" fill="#D8E1FD"/>
<path d="M309.07 114.435C311.39 116.435 312.85 118.145 315.19 119.255C318.75 120.495 322.68 121.905 325.02 125.275C325.66 126.245 326.16 127.615 325.69 128.715C324.15 127.295 322.51 127.405 320.68 126.905C317.9 126.265 314.65 125.585 312.21 123.825C309.36 121.595 308.17 117.815 309.07 114.445V114.435Z" fill="#103EFF"/>
<path d="M304.51 151.385C306.66 164.605 292.15 177.485 279.31 173.525C279.13 173.485 278.91 173.365 278.99 173.145C279.02 173.065 279.08 173.005 279.15 172.975L281.14 172.225C289.1 169.265 295.92 163.605 300.74 156.655C301.9 154.895 303.08 153.085 303.97 151.185C304.11 150.925 304.5 151.005 304.51 151.395V151.385Z" fill="#103EFF"/>
<path d="M351.39 158.465C351.39 158.465 358.48 154.925 368.45 157.335L379.13 146.695L370.15 140.985L360.52 143.225L354.63 154.545L351.39 158.455V158.465Z" fill="#D8E1FD"/>
<path d="M378.78 106.625L354.86 101.125C347.15 99.3549 337.52 100.355 331.68 104.805C336.65 102.515 344.31 102.685 350.06 104.005L373.98 109.505C387.77 112.675 396.37 126.425 393.2 140.215L393.08 140.735C391.68 146.815 388.23 151.875 383.63 155.375C390.58 152.165 396.03 145.895 397.88 137.855L398 137.335C401.17 123.545 392.56 109.795 378.78 106.625Z" fill="#BCCBFD"/>
<path d="M342.1 162.265C348.24 160.515 350.96 156.815 350.96 156.815C362.48 142.785 355.53 126.505 355.53 126.505C346.96 105.935 325.68 106.885 325.68 106.885L320.73 108.635C320.73 108.635 345.08 111.915 350.11 129.605C352.99 139.725 352.37 148.835 346.36 156.795C344.4 159.385 337.67 163.645 337.67 163.645L342.1 162.275V162.265Z" fill="#103EFF"/>
<path d="M356.54 156.925C357.96 156.185 359.02 154.935 360.05 153.745C362.92 150.185 365.01 145.985 365.99 141.575C367.05 137.105 366.83 132.395 366.14 127.865C365.96 126.235 365.48 124.695 365.31 123.035C366.82 125.055 368.05 127.265 368.91 129.645C369.21 130.285 369.43 131.405 369.62 132.095C370.48 135.365 370.48 139.095 369.73 142.415C368.41 148.535 363.16 156.255 356.53 156.925H356.54Z" fill="#BCCBFD"/>
<path d="M263.61 178.225C263.61 178.225 269.9 175.345 271.73 165.215C273.14 157.385 274.18 149.935 273.22 138.585C272.35 128.305 266.71 115.565 257.96 107.045C234.76 84.4249 211.54 75.5149 180.14 74.5849L194.47 70.8849C194.47 70.8849 241.24 75.4049 267.41 102.605C276.45 112.005 281.65 123.595 283.01 136.155C283.99 145.205 283.49 157.835 281.94 164.335C279.63 173.995 275.49 175.225 275.49 175.225L263.61 178.235V178.225Z" fill="#BCCBFD"/>
<path d="M212.68 190.615C212.68 190.615 225.93 186.305 235.26 190.765" stroke="#103EFF" stroke-width="6" stroke-miterlimit="10" stroke-linecap="round"/>
<path d="M247.92 141.275C263.58 143.715 272.68 165.065 262.81 177.715C262.71 177.875 262.5 178.025 262.32 177.875C262.24 177.815 262.21 177.725 262.21 177.635C262.26 176.115 262.53 174.075 262.43 172.585C262.48 163.325 258.72 154.275 252.85 147.175C251.21 145.265 249.5 143.365 247.56 141.765C247.35 141.605 247.51 141.215 247.78 141.265L247.92 141.285V141.275Z" fill="#103EFF"/>
<path d="M27.7198 1.85489C42.6698 -11.6751 68.9098 53.2249 92.4898 64.1049V126.255H48.6298C42.2298 126.255 30.7998 119.015 26.8898 101.515C22.0098 79.6149 9.02979 18.7849 27.7198 1.85489Z" fill="#FFAB4B"/>
<path fill-rule="evenodd" clip-rule="evenodd" d="M20.9999 71.1049C23.1799 64.7149 29.3799 48.3549 38.8999 38.6049C45.8599 31.4649 53.2699 27.6749 58.2499 25.6949C46.3399 8.95494 35.5099 -5.18506 27.7199 1.85494C15.0499 13.3449 16.9199 45.0849 20.9999 71.1049Z" fill="#1062FB"/>
<path d="M27.0898 14.0149C36.8898 3.79489 50.6098 64.6149 74.2698 73.0949V121.205H49.7998C41.5998 120.305 35.4898 110.895 32.7898 99.8749C28.7698 83.3149 17.0198 28.1949 27.0898 14.0149Z" fill="#FFCE96"/>
<path d="M239.64 1.85489C219.21 -11.6751 183.35 53.2249 151.14 64.1049V126.255H211.07C219.82 126.255 235.43 119.015 240.78 101.515C247.45 79.6149 265.19 18.7849 239.64 1.85489Z" fill="#FFAB4B"/>
<path fill-rule="evenodd" clip-rule="evenodd" d="M248.819 71.1049C245.839 64.7149 237.369 48.3549 224.359 38.6049C214.849 31.4649 204.729 27.6749 197.919 25.6949C214.189 8.95491 228.999 -5.19509 239.639 1.85491C256.949 13.3449 254.399 45.0849 248.819 71.1049Z" fill="#1062FB"/>
<path d="M240.49 14.015C227.1 3.79496 197.45 64.485 176.02 73.095V121.205H209.46C220.67 120.305 231.31 112.025 235 101.005C240.49 84.445 257.23 26.785 240.49 14.015Z" fill="#FFCE96"/>
<path d="M128.91 208.475C175.46 208.475 213.2 172.955 213.2 129.145C213.2 85.3349 175.46 49.8149 128.91 49.8149C82.3601 49.8149 44.6201 85.3349 44.6201 129.145C44.6201 172.955 82.3601 208.475 128.91 208.475Z" fill="#FFAB4B"/>
<path d="M228.72 175.135C227.84 173.185 226.81 171.205 225.64 169.225C226.59 168.705 227.41 167.915 227.99 166.895C229.06 165.035 229.08 162.725 228.03 160.865C221.47 149.485 211.97 144.665 207.47 141.595C205.34 140.175 202.68 140.095 200.43 141.435C199.88 141.795 199.39 142.205 198.98 142.675C196.53 141.735 193.86 140.925 190.87 140.205C175.02 136.445 153.29 136.445 130.27 136.445H123.17C100.18 136.445 78.4598 136.445 62.5498 140.205C59.6598 140.905 56.9198 141.765 54.3798 142.745C53.9298 142.215 53.3998 141.755 52.8098 141.395C50.6598 140.075 47.9798 140.145 45.7998 141.595C41.3398 144.605 36.8198 151.175 30.1898 162.685C29.1698 164.505 29.1798 166.735 30.2498 168.695C30.8298 169.705 31.6398 170.495 32.5798 171.015C31.6198 172.625 30.5398 174.635 29.5198 176.945C28.4298 179.405 29.0098 182.245 31.0198 184.165C32.4398 185.525 34.3998 186.225 36.3098 186.135C36.3698 186.845 36.5698 187.545 36.9198 188.205L36.9698 188.295C37.9598 190.005 39.7198 191.065 41.7798 191.145C41.9898 191.145 42.2098 191.155 42.4698 191.185C47.0998 199.875 69.7798 228.955 124.88 228.955C149.95 228.955 174.94 223.615 191.86 213.915C202.59 207.745 211.37 198.175 216.02 189.395C216.14 189.395 216.27 189.375 216.39 189.365H216.55C218.56 189.275 220.37 188.165 221.29 186.455C221.67 185.775 221.9 185.045 221.96 184.315C223.86 184.355 225.78 183.685 227.21 182.365C229.22 180.445 229.81 177.615 228.71 175.145L228.72 175.135Z" fill="#FFAB4B"/>
<path d="M178.16 156.635C163.58 161.525 146.04 158.465 141.24 151.245C134.57 141.225 123.75 132.775 111.24 132.615C98.7301 132.455 90.3401 139.675 82.7901 149.385C77.3901 156.325 74.0101 159.205 67.0201 157.565C59.0601 155.455 42.6201 147.405 44.4501 168.505C46.8201 195.855 71.6901 212.635 92.4901 220.525C101.16 223.815 116.2 227.605 138.14 225.075C167.2 221.725 195.9 206.335 206.27 179.915C207.67 176.345 208.69 172.545 209.26 168.495C211.21 150.255 194.14 152.415 178.16 156.645V156.635Z" fill="white"/>
<path d="M109.52 167.345C118.71 167.345 126.16 161.775 126.16 154.905C126.16 148.035 118.71 142.465 109.52 142.465C100.33 142.465 92.8799 148.035 92.8799 154.905C92.8799 161.775 100.33 167.345 109.52 167.345Z" fill="black"/>
<path d="M109.7 152.065C114.57 152.065 118.51 150.285 118.51 148.095C118.51 145.905 114.56 144.125 109.7 144.125C104.84 144.125 100.89 145.905 100.89 148.095C100.89 150.285 104.84 152.065 109.7 152.065Z" fill="#3C3835"/>
<path d="M130.87 130.525C130.87 119.175 140.05 109.995 151.4 109.995C162.75 109.995 171.93 119.175 171.93 130.525V139.515C171.93 140.935 170.94 142.115 169.56 142.405L135.17 149.265C132.95 149.695 130.91 148.035 130.91 145.765V130.535H130.86L130.87 130.525Z" fill="white"/>
<mask id="mask0_1906_2863" style="mask-type:luminance" maskUnits="userSpaceOnUse" x="132" y="109" width="42" height="40">
<path d="M132.63 130.015C132.63 118.665 141.81 109.485 153.16 109.485C164.51 109.485 173.69 118.665 173.69 130.015V139.005C173.69 140.425 172.7 141.605 171.32 141.895L136.93 148.755C134.71 149.185 132.67 147.525 132.67 145.255V130.025H132.62L132.63 130.015Z" fill="white"/>
</mask>
<g mask="url(#mask0_1906_2863)">
<path d="M145.65 141.735C139.48 141.735 134.49 135.975 134.49 128.865C134.49 121.755 139.49 115.995 145.65 115.995C151.81 115.995 156.81 121.755 156.81 128.865C156.81 135.975 151.81 141.735 145.65 141.735Z" fill="black"/>
<path d="M141.83 120.175C140.5 120.175 139.42 118.675 139.42 116.815C139.42 114.955 140.5 113.455 141.83 113.455C143.16 113.455 144.24 114.955 144.24 116.815C144.24 118.675 143.16 120.175 141.83 120.175Z" fill="white"/>
</g>
<path d="M172.43 130.515C172.43 118.425 161.06 105.085 148.79 105.945C141.57 106.455 133.35 114.105 129.85 120.445L128.05 127.355C128.05 127.355 155.29 136.575 172.79 134.745L172.43 130.515Z" fill="#FFAB4B"/>
<path d="M171.79 120.055C168.6 119.005 160.71 115.435 154.59 109.815" stroke="#DB811A" stroke-width="9.46" stroke-linecap="round"/>
<path d="M128.05 125.305C128.05 125.305 144.02 136.715 174.53 135.085" stroke="#F4973B" stroke-width="4" stroke-linecap="round"/>
<path d="M95.1601 130.525C95.1601 119.175 87.1101 109.995 77.1501 109.995C67.1901 109.995 59.1401 119.175 59.1401 130.525V139.515C59.1401 140.935 60.0101 142.115 61.2201 142.405L91.3901 149.265C93.3401 149.695 95.1301 148.035 95.1301 145.765V130.535H95.1701L95.1601 130.525Z" fill="white"/>
<path d="M80.74 140.655C87.23 140.655 92.48 134.895 92.48 127.785C92.48 120.675 87.22 114.915 80.74 114.915C74.26 114.915 69 120.675 69 127.785C69 134.895 74.26 140.655 80.74 140.655Z" fill="black"/>
<path d="M85.3899 125.995C86.7899 125.995 87.9199 124.495 87.9199 122.635C87.9199 120.775 86.7899 119.275 85.3899 119.275C83.9899 119.275 82.8599 120.775 82.8599 122.635C82.8599 124.495 83.9899 125.995 85.3899 125.995Z" fill="white"/>
<path d="M55.13 130.515C55.13 118.425 66.5 105.085 78.77 105.945C85.99 106.455 94.21 114.105 97.71 120.445L99.51 127.355C99.51 127.355 72.27 136.575 54.77 134.745L55.13 130.515Z" fill="#FFAB4B"/>
<path d="M61.1802 119.005C64.0402 117.965 71.1502 114.445 76.8102 108.865" stroke="#DB811A" stroke-width="8.86" stroke-linecap="round"/>
<path d="M97.4899 125.305C97.4899 125.305 83.4299 134.925 56.4399 135.085" stroke="#F4973B" stroke-width="3.76" stroke-linecap="round"/>
<path d="M137.48 50.225L131.49 64.295L120.7 66.045L111.55 94.705L102.4 66.045L91.6099 64.295L90.1599 58.705C86.9299 60.285 83.8299 62.045 80.8599 63.985L82.3299 67.985C83.5499 71.815 86.5499 74.555 90.1299 75.125L95.0999 75.925L105.47 110.125C107.41 116.515 115.5 116.515 117.44 110.125L127.81 75.925L132.78 75.125C136.36 74.555 139.36 71.815 140.58 67.985L147.5 51.785C144.22 51.085 140.88 50.555 137.47 50.225H137.48Z" fill="#FFCE96"/>
<path d="M119.01 55.8349L120.83 50.1949C119.12 50.3449 117.42 50.5449 115.74 50.7949L111.55 63.9649L107.85 52.3149C106.33 52.6849 104.84 53.0949 103.35 53.5449L104.09 55.8249L98.9497 54.9949C97.3297 55.5749 95.7297 56.2049 94.1597 56.8749L95.0297 59.5549L105.82 61.3049L111.55 79.2749L117.28 61.3049L128.07 59.5549L129.84 54.0649L119.01 55.8149V55.8349Z" fill="#FFCE96"/>
<path d="M119.73 180.885L119.7 186.165C119.65 193.495 125.03 199.475 131.74 199.525C138.45 199.575 143.92 193.675 143.97 186.345L144.01 180.415C139.27 180.715 124.05 180.785 119.74 180.885H119.73Z" fill="#FF6561"/>
<path d="M122.21 187.245C122.05 186.485 122.56 185.835 123.19 185.755C123.88 185.585 124.48 186.135 124.55 186.825C124.49 186.925 125.38 193.075 130.33 193.945C130.94 194.145 131.39 194.735 131.3 195.465C131.23 195.925 130.84 196.375 130.38 196.495C130.23 196.535 130.07 196.575 129.9 196.525C124.6 195.565 122.47 190.005 122.21 187.235V187.245Z" fill="#FFB5B3"/>
<path d="M111 180.345H145.2" stroke="black" stroke-width="3" stroke-linecap="round" stroke-linejoin="round"/>
</svg>
