<svg width="270" height="297" viewBox="0 0 270 297" fill="none" xmlns="http://www.w3.org/2000/svg">
<mask id="mask0_1974_8217" style="mask-type:luminance" maskUnits="userSpaceOnUse" x="0" y="94" width="270" height="195">
<path d="M269.37 94.7148H0V288.835H269.37V94.7148Z" fill="white"/>
</mask>
<g mask="url(#mask0_1974_8217)">
<path d="M79.5599 253.395L47.6899 283.975" stroke="#1062FB" stroke-width="44" stroke-miterlimit="10" stroke-linecap="round"/>
<path d="M47.6899 283.975H56.4499" stroke="#1062FB" stroke-width="44" stroke-miterlimit="10" stroke-linecap="round"/>
<path d="M188.56 253.395L220.44 283.975" stroke="#1062FB" stroke-width="44" stroke-miterlimit="10" stroke-linecap="round"/>
<path d="M220.44 283.975H211.68" stroke="#1062FB" stroke-width="44" stroke-miterlimit="10" stroke-linecap="round"/>
<path d="M171.04 357.135H95.9198C78.2898 357.135 64.3498 342.275 65.5498 324.775L77.1698 226.355C78.2598 210.455 91.5298 201.745 107.54 201.745H159.43C175.44 201.745 188.71 210.455 189.8 226.355L201.42 324.775C202.62 342.285 188.67 357.135 171.05 357.135H171.04Z" fill="#1062FB"/>
<path d="M146.37 238.085H122V314.155H146.37V238.085Z" fill="#0128FC"/>
<path d="M73.9698 300.755L68.3398 299.645L73.8798 254.305L74.8098 256.465C75.4298 257.915 75.7099 259.495 75.6199 261.065L73.9698 300.745V300.755Z" fill="#103EFF"/>
<path d="M193.01 300.755L198.64 299.645L193.1 254.305L192.17 256.465C191.55 257.915 191.27 259.495 191.36 261.065L193.01 300.745V300.755Z" fill="#103EFF"/>
<path d="M76.8599 228.915L75.8999 237.035C89.3999 245.145 109.78 249.375 133.61 249.375C157.44 249.375 177.57 244.695 190.99 236.465L190.12 229.105C178 237.875 157.71 242.845 133.61 242.845C109.51 242.845 89.0999 237.655 76.8599 228.915Z" fill="#103EFF"/>
<path d="M133.61 242.845C167.44 242.845 194.87 232.585 194.87 219.925C194.87 207.265 167.44 197.005 133.61 197.005C99.7799 197.005 72.3499 207.265 72.3499 219.925C72.3499 232.585 99.7799 242.845 133.61 242.845Z" fill="#BCCBFD"/>
<path d="M65.0098 265.055H51.0298C40.5474 265.055 32.0498 273.552 32.0498 284.035V285.255C32.0498 295.737 40.5474 304.235 51.0298 304.235H65.0098C75.4922 304.235 83.9898 295.737 83.9898 285.255V284.035C83.9898 273.552 75.4922 265.055 65.0098 265.055Z" fill="#0128FC"/>
<path d="M203.11 304.235H217.09C227.572 304.235 236.07 295.738 236.07 285.255V284.035C236.07 273.553 227.572 265.055 217.09 265.055H203.11C192.627 265.055 184.13 273.553 184.13 284.035V285.255C184.13 295.738 192.627 304.235 203.11 304.235Z" fill="#0128FC"/>
</g>
<path d="M99.1698 288.835C98.7598 285.625 96.1498 283.035 92.7998 282.755L84.0998 282.045C83.7998 281.695 83.4698 281.355 83.0998 281.005C73.1798 271.735 57.4998 272.235 50.4398 274.155C45.1798 275.585 34.1798 281.315 36.7198 288.825H99.1698V288.835Z" fill="#EA9642"/>
<path d="M73.7198 287.095L72.0198 278.325" stroke="#FFAB4B" stroke-width="13.07" stroke-miterlimit="10" stroke-linecap="round"/>
<path d="M59.4397 289.965L60.0197 276.205" stroke="#FFAB4B" stroke-width="13.07" stroke-miterlimit="10" stroke-linecap="round"/>
<path d="M45.9497 289.945L46.9697 278.865" stroke="#FFAB4B" stroke-width="11.88" stroke-miterlimit="10" stroke-linecap="round"/>
<path d="M168.96 288.835C169.37 285.625 171.98 283.035 175.33 282.755L184.03 282.045C184.33 281.695 184.66 281.355 185.03 281.005C194.95 271.735 210.63 272.235 217.69 274.155C222.95 275.585 233.95 281.315 231.41 288.825H168.96V288.835Z" fill="#EA9642"/>
<path d="M194.41 287.095L196.1 278.325" stroke="#FFAB4B" stroke-width="13.07" stroke-miterlimit="10" stroke-linecap="round"/>
<path d="M208.69 289.965L208.11 276.205" stroke="#FFAB4B" stroke-width="13.07" stroke-miterlimit="10" stroke-linecap="round"/>
<path d="M222.18 289.945L221.15 278.865" stroke="#FFAB4B" stroke-width="11.88" stroke-miterlimit="10" stroke-linecap="round"/>
<path d="M21.3 1.85526C41.73 -11.6747 77.59 53.2253 109.8 64.1053V126.255H49.87C41.12 126.255 25.51 119.015 20.16 101.515C13.49 79.6253 -4.25 18.7953 21.3 1.85526Z" fill="#FFAB4B"/>
<path fill-rule="evenodd" clip-rule="evenodd" d="M12.1199 71.1052C15.0999 64.7152 23.5699 48.3552 36.5799 38.6052C46.0899 31.4652 56.2099 27.6752 63.0199 25.6952C46.7499 8.95518 31.9399 -5.18482 21.2999 1.85518C3.97988 13.3552 6.53988 45.0952 12.1199 71.1052Z" fill="#1062FB"/>
<path d="M20.4498 14.0151C33.8398 3.79508 63.4898 64.4851 84.9198 73.0951V121.205H51.4798C40.2698 120.305 29.6298 112.025 25.9398 101.005C20.4498 84.4451 3.69979 26.7851 20.4498 14.0151Z" fill="#FFCE96"/>
<path d="M246.13 1.85526C225.7 -11.6747 189.84 53.2253 157.63 64.1053V126.255H217.56C226.31 126.255 241.92 119.015 247.27 101.515C253.94 79.6153 271.68 18.7853 246.13 1.85526Z" fill="#FFAB4B"/>
<path fill-rule="evenodd" clip-rule="evenodd" d="M255.31 71.1049C252.33 64.7149 243.86 48.3549 230.85 38.6049C221.34 31.4649 211.22 27.6749 204.41 25.6949C220.68 8.95491 235.49 -5.19509 246.13 1.85491C263.44 13.3449 260.89 45.0849 255.31 71.1049Z" fill="#1062FB"/>
<path d="M246.98 14.0151C233.59 3.79508 203.94 64.4851 182.51 73.0951V121.205H215.95C227.16 120.305 237.8 112.025 241.49 101.005C246.98 84.4451 263.72 26.7851 246.98 14.0151Z" fill="#FFCE96"/>
<path d="M133.4 208.474C179.95 208.474 217.69 172.954 217.69 129.144C217.69 85.3345 179.95 49.8145 133.4 49.8145C86.8499 49.8145 49.1099 85.3345 49.1099 129.144C49.1099 172.954 86.8499 208.474 133.4 208.474Z" fill="#FFAB4B"/>
<path d="M234.21 177.135C233.33 175.185 232.3 173.205 231.13 171.225C232.08 170.705 232.9 169.915 233.48 168.895C234.55 167.035 234.57 164.725 233.52 162.865C226.96 151.485 218.46 144.665 213.96 141.595C211.83 140.175 209.17 140.095 206.92 141.435C206.37 141.795 205.88 142.205 205.47 142.675C203.02 141.735 200.35 140.925 197.36 140.205C181.51 136.445 159.78 136.445 136.76 136.445H129.66C106.67 136.445 84.9498 136.445 69.0398 140.205C66.1498 140.905 63.4098 141.765 60.8698 142.745C60.4198 142.215 59.8898 141.755 59.2998 141.395C57.1498 140.075 54.4698 140.145 52.2898 141.595C47.8298 144.605 39.3598 151.375 32.7298 162.875C31.7098 164.695 31.7198 166.925 32.7898 168.885C33.3698 169.895 34.1798 170.685 35.1198 171.205C34.1598 172.815 33.0798 174.825 32.0598 177.135C30.9698 179.595 31.5498 182.435 33.5598 184.355C34.9798 185.715 36.9398 186.415 38.8498 186.325C38.9098 187.035 39.1098 187.735 39.4598 188.395L39.5098 188.485C40.4998 190.195 42.2598 191.255 44.3198 191.335C44.5298 191.335 44.7498 191.345 45.0098 191.375C49.6398 200.065 57.6098 207.835 68.1398 213.895C84.9698 223.595 108.09 228.935 133.24 228.935C158.39 228.935 181.43 223.595 198.34 213.895C209.07 207.725 216.85 200.155 221.5 191.375C221.62 191.375 221.75 191.355 221.87 191.345H222.03C224.04 191.255 225.85 190.145 226.77 188.435C227.15 187.755 227.38 187.025 227.44 186.295C229.34 186.335 231.26 185.665 232.69 184.345C234.7 182.425 235.29 179.595 234.19 177.125L234.21 177.135Z" fill="#FFAB4B"/>
<path d="M184.68 154.315C176.4 156.015 167.89 152.425 163.3 145.095C156.91 134.925 145.8 128.165 133.17 128.165C120.54 128.165 109.42 134.925 103.04 145.095C98.5001 152.375 89.9401 155.975 81.6601 154.315C62.6001 150.435 50.3501 149.825 50.3501 168.455C50.3501 200.905 95.8501 225.125 133.13 225.125C170.41 225.125 215.91 200.905 215.91 168.455C216 149.815 203.75 150.435 184.69 154.315H184.68Z" fill="white"/>
<path d="M133.12 162.685C142.84 162.685 150.72 157.115 150.72 150.245C150.72 143.375 142.84 137.805 133.12 137.805C123.4 137.805 115.52 143.375 115.52 150.245C115.52 157.115 123.4 162.685 133.12 162.685Z" fill="black"/>
<path d="M133.31 147.405C138.46 147.405 142.63 145.625 142.63 143.435C142.63 141.245 138.46 139.465 133.31 139.465C128.16 139.465 123.99 141.245 123.99 143.435C123.99 145.625 128.16 147.405 133.31 147.405Z" fill="#3C3835"/>
<path d="M186.62 101.764C179.19 98.0245 170.63 96.7545 167.28 96.6045" stroke="#DB811A" stroke-width="9.46" stroke-linecap="round"/>
<path d="M98.56 96.5752C95.2 96.7152 86.64 97.9952 79.22 101.735" stroke="#DB811A" stroke-width="9.46" stroke-linecap="round"/>
<path d="M134.41 203.705C163.19 203.705 165.22 166.345 165.22 166.345C157.79 173.685 146.34 178.395 133.5 178.395C120.66 178.395 109.79 173.925 102.36 166.905C102.36 166.905 104.3 203.695 133.41 203.695H134.42L134.41 203.705Z" fill="#440E02" stroke="black" stroke-width="3" stroke-linecap="round" stroke-linejoin="round"/>
<path d="M126.81 210.734C128.83 211.144 131.02 211.364 133.39 211.364H134.4C136.87 211.364 139.14 211.114 141.23 210.654" stroke="black" stroke-width="3" stroke-linecap="round" stroke-linejoin="round"/>
<path d="M148.11 193.734C148.11 197.484 141.66 200.524 133.7 200.524C125.74 200.524 119.29 197.484 119.29 193.734C119.29 191.004 122.71 188.614 127.65 187.574C131.33 186.794 133.7 188.024 133.7 188.024C133.7 188.024 136.35 186.904 139.69 187.564C144.68 188.544 148.11 190.994 148.11 193.734Z" fill="#FF5252"/>
<path d="M132.34 188.804C132.34 188.804 124.36 187.914 121.18 193.214C121.18 193.214 120.96 194.214 122.35 194.214C123.74 194.214 124.08 191.374 129.32 190.424C129.32 190.424 132.11 190.874 132.33 188.804H132.34Z" fill="#FF9999"/>
<path d="M135.05 188.804C135.05 188.804 143.03 187.914 146.21 193.214C146.21 193.214 146.43 194.214 145.04 194.214C143.65 194.214 143.31 191.374 138.07 190.424C138.07 190.424 135.28 190.874 135.06 188.804H135.05Z" fill="#FF9999"/>
<path d="M75.17 165.045C74.62 165.045 74.06 164.905 73.56 164.625C72.35 163.965 71.65 162.735 71.72 161.315L72.52 143.335C72.55 142.635 72.24 141.945 71.69 141.505L57.99 130.445C56.94 129.595 56.46 128.245 56.74 126.905C57.01 125.615 57.94 124.605 59.18 124.255L75.73 119.695C76.45 119.495 77.02 118.955 77.25 118.245L82.8 101.405C83.23 100.115 84.32 99.2247 85.63 99.0747C85.77 99.0547 85.9 99.0547 86.04 99.0547C87.21 99.0547 88.29 99.6647 88.93 100.695L98.37 115.825C98.76 116.455 99.44 116.845 100.19 116.875L117.23 117.405C118.52 117.455 119.66 118.215 120.22 119.415C120.8 120.655 120.65 122.085 119.83 123.145L109.08 137.075C108.65 137.635 108.51 138.375 108.7 139.055L113.68 156.375C114.07 157.715 113.68 159.105 112.66 160.015C112.14 160.485 111.5 160.775 110.81 160.855C110.68 160.875 110.55 160.875 110.42 160.875C109.99 160.875 109.56 160.795 109.15 160.625L93.11 154.105C92.84 153.995 92.56 153.945 92.27 153.945C91.8 153.945 91.35 154.095 90.96 154.365L77.09 164.415C76.62 164.745 76.09 164.955 75.54 165.015C75.41 165.035 75.28 165.035 75.16 165.035L75.17 165.045Z" fill="#FFC200"/>
<path d="M86.0501 100.255C86.8101 100.255 87.5001 100.645 87.9301 101.335L97.3701 116.455C97.9701 117.425 99.0201 118.025 100.16 118.065L117.2 118.595C118.03 118.625 118.78 119.125 119.15 119.915C119.54 120.745 119.44 121.705 118.89 122.415L108.14 136.345C107.48 137.205 107.26 138.335 107.56 139.375L112.54 156.695C112.8 157.595 112.54 158.525 111.87 159.125C111.53 159.435 111.12 159.625 110.68 159.675C110.6 159.675 110.51 159.685 110.43 159.685C110.15 159.685 109.88 159.635 109.61 159.525L93.5701 153.005C93.1601 152.835 92.7201 152.755 92.2801 152.755C91.5701 152.755 90.87 152.975 90.2701 153.405L76.4001 163.455C76.1101 163.665 75.7701 163.795 75.4101 163.845C75.3301 163.845 75.2501 163.855 75.1701 163.855C74.8101 163.855 74.4601 163.765 74.1301 163.585C73.3201 163.145 72.8601 162.325 72.9001 161.375L73.7001 143.395C73.7501 142.305 73.2801 141.265 72.4301 140.585L58.7301 129.525C58.0301 128.955 57.7101 128.045 57.8901 127.155C58.0701 126.305 58.6801 125.635 59.4901 125.415L76.0401 120.865C77.1401 120.565 78.0201 119.725 78.3801 118.635L83.9301 101.795C84.2101 100.945 84.9001 100.375 85.7701 100.275C85.8601 100.265 85.9501 100.255 86.0401 100.255M86.0501 97.875C85.8701 97.875 85.6901 97.885 85.5001 97.905C83.7301 98.115 82.2701 99.315 81.6901 101.035L76.1401 117.885C76.0301 118.215 75.7701 118.465 75.4301 118.565L58.8801 123.115C57.2001 123.575 55.9401 124.935 55.5801 126.665C55.2101 128.445 55.8501 130.255 57.2501 131.375L70.9401 142.435C71.2001 142.645 71.3401 142.965 71.3201 143.285L70.5201 161.265C70.4401 163.115 71.3901 164.805 72.9901 165.675C73.6501 166.035 74.4001 166.235 75.1601 166.235C75.3301 166.235 75.5101 166.225 75.6801 166.205C76.4301 166.115 77.1601 165.835 77.7801 165.395L91.6601 155.335C91.8401 155.205 92.05 155.135 92.2701 155.135C92.4001 155.135 92.5401 155.165 92.6601 155.215L108.7 161.735C109.26 161.955 109.83 162.075 110.42 162.075C110.6 162.075 110.77 162.065 110.95 162.045C111.88 161.935 112.74 161.545 113.45 160.905C114.81 159.685 115.33 157.825 114.82 156.045L109.84 138.725C109.75 138.405 109.81 138.065 110.02 137.805L120.77 123.875C121.87 122.455 122.07 120.545 121.3 118.905C120.55 117.305 119.01 116.275 117.28 116.215L100.23 115.685C99.8801 115.675 99.57 115.495 99.3801 115.195L89.9401 100.075C89.0801 98.695 87.6201 97.875 86.0401 97.875H86.0501Z" fill="#FFE498"/>
<path d="M86.24 108.955L82.43 121.515C81.86 123.405 80.31 124.845 78.39 125.275L66.53 127.965" stroke="#FFE498" stroke-width="3.57" stroke-linecap="round" stroke-linejoin="round"/>
<path d="M191.25 165.045C191.12 165.045 190.99 165.045 190.87 165.025C190.32 164.955 189.78 164.755 189.32 164.425L175.44 154.375C175.06 154.095 174.61 153.955 174.13 153.955C173.84 153.955 173.56 154.015 173.29 154.115L157.25 160.635C156.84 160.805 156.41 160.885 155.98 160.885C155.85 160.885 155.72 160.885 155.59 160.865C154.91 160.785 154.27 160.495 153.74 160.025C152.73 159.115 152.33 157.715 152.72 156.385L157.7 139.065C157.89 138.385 157.75 137.645 157.32 137.085L146.57 123.155C145.75 122.085 145.6 120.655 146.18 119.425C146.74 118.235 147.88 117.465 149.17 117.415L166.21 116.885C166.96 116.865 167.64 116.475 168.03 115.835L177.47 100.715C178.11 99.6852 179.19 99.0752 180.36 99.0752C180.49 99.0752 180.63 99.0752 180.77 99.0952C182.08 99.2452 183.17 100.145 183.6 101.415L189.15 118.255C189.38 118.965 189.95 119.505 190.67 119.705L207.22 124.255C208.46 124.595 209.4 125.615 209.67 126.905C209.95 128.245 209.47 129.605 208.41 130.445L194.72 141.505C194.17 141.945 193.86 142.635 193.89 143.335L194.7 161.315C194.76 162.725 194.07 163.965 192.85 164.625C192.36 164.895 191.8 165.035 191.25 165.035V165.045Z" fill="#FFC200"/>
<path d="M180.37 100.255C180.46 100.255 180.55 100.255 180.64 100.275C181.5 100.375 182.19 100.955 182.48 101.795L188.03 118.635C188.39 119.725 189.27 120.555 190.37 120.865L206.92 125.415C207.73 125.635 208.34 126.305 208.52 127.155C208.71 128.055 208.39 128.965 207.68 129.525L193.98 140.585C193.14 141.265 192.66 142.315 192.71 143.395L193.51 161.375C193.55 162.325 193.09 163.145 192.28 163.585C191.95 163.765 191.6 163.855 191.24 163.855C191.16 163.855 191.08 163.855 191 163.845C190.64 163.805 190.3 163.665 190.01 163.455L176.14 153.405C175.55 152.975 174.84 152.755 174.13 152.755C173.7 152.755 173.26 152.835 172.84 153.005L156.8 159.525C156.53 159.635 156.26 159.685 155.98 159.685C155.9 159.685 155.81 159.685 155.73 159.675C155.29 159.625 154.88 159.435 154.54 159.125C153.87 158.525 153.61 157.585 153.87 156.695L158.85 139.375C159.15 138.325 158.94 137.205 158.27 136.345L147.52 122.415C146.97 121.705 146.87 120.745 147.26 119.915C147.63 119.125 148.38 118.625 149.21 118.595L166.25 118.065C167.39 118.025 168.44 117.425 169.04 116.455L178.48 101.335C178.91 100.645 179.6 100.255 180.36 100.255M180.37 97.875C178.79 97.875 177.33 98.695 176.47 100.075L167.03 115.205C166.85 115.495 166.53 115.685 166.18 115.695L149.14 116.225C147.4 116.285 145.86 117.315 145.11 118.915C144.34 120.555 144.54 122.455 145.64 123.875L156.39 137.805C156.59 138.065 156.66 138.405 156.57 138.725L151.59 156.045C151.08 157.825 151.6 159.685 152.96 160.905C153.67 161.545 154.53 161.935 155.46 162.045C155.64 162.065 155.81 162.075 155.99 162.075C156.57 162.075 157.15 161.965 157.7 161.735L173.74 155.215C173.86 155.165 174 155.135 174.13 155.135C174.35 155.135 174.56 155.205 174.74 155.335L188.61 165.385C189.24 165.835 189.97 166.115 190.72 166.205C190.9 166.225 191.07 166.235 191.24 166.235C191.99 166.235 192.75 166.045 193.42 165.675C195.02 164.815 195.96 163.125 195.88 161.275L195.08 143.295C195.07 142.965 195.21 142.645 195.46 142.445L209.16 131.385C210.56 130.265 211.2 128.455 210.83 126.675C210.47 124.945 209.21 123.585 207.54 123.125L190.99 118.565C190.65 118.475 190.39 118.225 190.28 117.885L184.73 101.045C184.15 99.315 182.69 98.115 180.91 97.905C180.73 97.885 180.54 97.875 180.36 97.875H180.37Z" fill="#FFE498"/>
<path d="M179.68 108.655L173.26 120.105C172.29 121.825 170.48 122.895 168.51 122.915L156.35 123.005" stroke="#FFE498" stroke-width="3.57" stroke-linecap="round" stroke-linejoin="round"/>
<path d="M159.91 53.8457L156.15 64.2957L144.04 66.0457L133.78 94.7057L123.52 66.0457L111.41 64.2957L107.57 53.6357C104.01 54.7157 100.56 55.9957 97.22 57.4957L101 67.9957C102.37 71.8257 105.73 74.5657 109.75 75.1357L115.33 75.9357L126.97 110.136C129.15 116.526 138.23 116.526 140.4 110.136L152.04 75.9357L157.62 75.1357C161.64 74.5657 165 71.8257 166.37 67.9957L170.07 57.7157C166.8 56.2257 163.4 54.9457 159.91 53.8557V53.8457Z" fill="#FFCE96"/>
<path d="M115.24 59.5653L127.35 61.3153L133.78 79.2853L140.21 61.3153L152.32 59.5653L154.31 54.0753L142.15 55.8253L144.09 50.4753C142.33 50.2653 140.55 50.1053 138.76 49.9953L133.78 63.9653L128.78 49.9453C126.98 50.0353 125.2 50.1953 123.44 50.3953L125.41 55.8353L113.25 54.0853L115.24 59.5753V59.5653Z" fill="#FFCE96"/>
</svg>
